<?xml version="1.0" standalone="no"?>
<!DOCTYPE svg PUBLIC "-//W3C//DTD SVG 20010904//EN"
 "http://www.w3.org/TR/2001/REC-SVG-20010904/DTD/svg10.dtd">
<svg version="1.0" xmlns="http://www.w3.org/2000/svg"
 width="130.000000pt" height="194.000000pt" viewBox="0 0 130.000000 194.000000"
 preserveAspectRatio="xMidYMid meet">

<g transform="translate(0.000000,194.000000) scale(0.100000,-0.100000)"
fill="#000000" stroke="none">
<path d="M1235 1906 c-13 -19 -14 -29 -6 -45 12 -22 45 -36 61 -26 17 10 11
23 -8 18 -23 -6 -44 19 -36 42 5 11 14 15 31 12 15 -3 22 0 20 7 -7 22 -45 18
-62 -8z"/>
<path d="M136 1881 c-33 -36 10 -94 53 -72 27 15 34 41 16 67 -19 29 -46 31
-69 5z m59 -31 c0 -18 -6 -26 -23 -28 -24 -4 -38 18 -28 44 3 9 15 14 28 12
17 -2 23 -10 23 -28z"/>
<path d="M1256 1892 c-2 -4 -1 -14 4 -22 7 -11 12 -12 21 -3 6 6 8 16 5 22 -8
13 -23 14 -30 3z"/>
<path d="M557 1602 c-22 -24 -22 -45 1 -65 25 -23 45 -21 68 4 17 19 17 23 3
47 -18 33 -49 39 -72 14z m58 -32 c0 -18 -6 -26 -23 -28 -13 -2 -25 3 -28 12
-10 26 4 48 28 44 17 -2 23 -10 23 -28z"/>
<path d="M574 1579 c-10 -17 13 -36 27 -22 12 12 4 33 -11 33 -5 0 -12 -5 -16
-11z"/>
<path d="M1015 1439 c-47 -25 -65 -45 -65 -73 1 -16 4 -14 14 10 10 22 27 37
60 50 25 10 46 22 46 27 0 11 -11 8 -55 -14z"/>
<path d="M157 1213 c-5 -51 7 -99 29 -107 11 -4 11 0 -2 19 -12 18 -15 40 -12
80 6 67 -7 74 -15 8z"/>
<path d="M759 1093 l-24 -26 27 19 c15 10 28 22 28 27 0 12 -5 8 -31 -20z"/>
<path d="M715 1060 c-4 -6 -21 -8 -40 -4 -19 3 -35 1 -39 -5 -4 -7 1 -11 13
-11 18 0 19 -3 10 -26 -5 -15 -7 -29 -5 -32 10 -9 37 8 31 19 -4 6 5 24 21 40
15 16 25 29 21 29 -3 0 -9 -5 -12 -10z"/>
<path d="M950 743 c0 -5 17 -28 38 -51 30 -32 46 -42 68 -41 25 2 26 2 6 6
-13 3 -44 25 -68 51 -24 25 -44 41 -44 35z"/>
<path d="M518 639 c22 -7 44 -25 64 -54 34 -48 52 -54 23 -8 -35 55 -57 73
-89 72 l-31 -1 33 -9z"/>
<path d="M170 505 c0 -8 4 -15 9 -15 5 0 7 -9 4 -20 -6 -21 10 -26 41 -14 22
8 20 26 -1 22 -12 -2 -19 4 -21 20 -4 24 -32 31 -32 7z"/>
<path d="M136 361 c-4 -7 -5 -15 -2 -18 9 -9 19 4 14 18 -4 11 -6 11 -12 0z"/>
<path d="M1170 356 c0 -2 7 -7 16 -10 8 -3 12 -2 9 4 -6 10 -25 14 -25 6z"/>
<path d="M1260 276 c0 -14 4 -28 10 -31 6 -3 7 1 4 9 -4 11 0 16 10 16 21 0
21 16 0 24 -23 9 -24 8 -24 -18z"/>
<path d="M828 89 c-26 -15 -23 -65 3 -80 34 -18 69 3 69 40 0 42 -36 62 -72
40z m52 -24 c10 -12 10 -18 0 -30 -7 -8 -18 -15 -25 -15 -7 0 -18 7 -25 15
-10 12 -10 18 0 30 7 8 18 15 25 15 7 0 18 -7 25 -15z"/>
<path d="M840 50 c0 -11 7 -20 15 -20 8 0 15 9 15 20 0 11 -7 20 -15 20 -8 0
-15 -9 -15 -20z"/>
</g>
</svg>
